<svg width="16" height="16" viewBox="0 0 16 16" fill="none" xmlns="http://www.w3.org/2000/svg">
<path d="M8 6L12.375 1.625C13.2812 0.71875 14.6875 0.71875 15.5938 1.625C15.8125 1.84375 15.8125 2.1875 15.5938 2.40625L6.75 11.25C6.90625 11.6562 7 12.0625 7 12.5C7 14.4375 5.40625 16 3.5 16C1.5625 16 0 14.4375 0 12.5C0 10.5938 1.5625 9 3.5 9C3.9375 9 4.34375 9.09375 4.75 9.25L6 8L4.75 6.78125C4.34375 6.9375 3.9375 7 3.5 7C1.5625 7 0 5.4375 0 3.5C0 1.59375 1.5625 0 3.5 0C5.40625 0 7 1.59375 7 3.5C7 3.96875 6.90625 4.375 6.75 4.78125L8 6ZM8.6875 10.7188L10.6875 8.71875L15.5938 13.625C15.8125 13.8438 15.8125 14.1875 15.5938 14.4062C14.6875 15.3125 13.2812 15.3125 12.375 14.4062L8.6875 10.7188ZM2 3.5C2 4.0625 2.28125 4.53125 2.75 4.8125C3.1875 5.09375 3.78125 5.09375 4.25 4.8125C4.6875 4.53125 5 4.0625 5 3.5C5 2.96875 4.6875 2.5 4.25 2.21875C3.78125 1.9375 3.1875 1.9375 2.75 2.21875C2.28125 2.5 2 2.96875 2 3.5ZM3.5 11C2.9375 11 2.46875 11.3125 2.1875 11.75C1.90625 12.2188 1.90625 12.8125 2.1875 13.25C2.46875 13.7188 2.9375 14 3.5 14C4.03125 14 4.5 13.7188 4.78125 13.25C5.0625 12.8125 5.0625 12.2188 4.78125 11.75C4.5 11.3125 4.03125 11 3.5 11Z" fill="black"/>
</svg>
