<svg width="15" height="16" viewBox="0 0 15 16" fill="none" xmlns="http://www.w3.org/2000/svg">
<path d="M8.4375 1.8125V8.93164L10.5762 6.79297C10.9277 6.41211 11.543 6.41211 11.8945 6.79297C12.2754 7.14453 12.2754 7.75977 11.8945 8.11133L8.14453 11.8613C7.79297 12.2422 7.17773 12.2422 6.82617 11.8613L3.07617 8.11133C2.69531 7.75977 2.69531 7.14453 3.07617 6.79297C3.42773 6.41211 4.04297 6.41211 4.39453 6.79297L6.5625 8.93164V1.8125C6.5625 1.31445 6.97266 0.875 7.5 0.875C7.99805 0.875 8.4375 1.31445 8.4375 1.8125ZM1.875 11.1875H4.83398L6.15234 12.5352C6.88477 13.2676 8.08594 13.2676 8.81836 12.5352L10.1367 11.1875H13.125C14.1504 11.1875 15 12.0371 15 13.0625V14C15 15.0547 14.1504 15.875 13.125 15.875H1.875C0.820312 15.875 0 15.0547 0 14V13.0625C0 12.0371 0.820312 11.1875 1.875 11.1875ZM12.6562 12.8281C12.2461 12.8281 11.9531 13.1504 11.9531 13.5312C11.9531 13.9414 12.2461 14.2344 12.6562 14.2344C13.0371 14.2344 13.3594 13.9414 13.3594 13.5312C13.3594 13.1504 13.0371 12.8281 12.6562 12.8281Z" fill="#007A39"/>
</svg>
