<svg width="20" height="21" viewBox="0 0 20 21" fill="none" xmlns="http://www.w3.org/2000/svg">
<path d="M18.3984 1.35938C17.5391 0.5 16.1719 0.5 15.3125 1.35938L14.1406 2.53125L17.9688 6.35938L19.1406 5.1875C20 4.32812 20 2.96094 19.1406 2.10156L18.3984 1.35938ZM6.71875 9.95312C6.48438 10.1875 6.28906 10.5 6.17188 10.8125L5.03906 14.2891C4.92188 14.6016 5 14.9922 5.27344 15.2266C5.50781 15.5 5.89844 15.5781 6.21094 15.4609L9.6875 14.3281C10 14.2109 10.3125 14.0156 10.5469 13.7812L17.0703 7.25781L13.2422 3.42969L6.71875 9.95312ZM3.75 3C1.67969 3 0 4.67969 0 6.75V16.75C0 18.8203 1.67969 20.5 3.75 20.5H13.75C15.8203 20.5 17.5 18.8203 17.5 16.75V13C17.5 12.3359 16.9141 11.75 16.25 11.75C15.5469 11.75 15 12.3359 15 13V16.75C15 17.4531 14.4141 18 13.75 18H3.75C3.04688 18 2.5 17.4531 2.5 16.75V6.75C2.5 6.08594 3.04688 5.5 3.75 5.5H7.5C8.16406 5.5 8.75 4.95312 8.75 4.25C8.75 3.58594 8.16406 3 7.5 3H3.75Z" fill="#007A39"/>
</svg>
