<svg width="20" height="15" viewBox="0 0 20 15" fill="none" xmlns="http://www.w3.org/2000/svg">
<path d="M1.875 0C0.820312 0 0 0.859375 0 1.875C0 2.5 0.273438 3.04688 0.742188 3.39844L9.21875 9.76562C9.6875 10.1172 10.2734 10.1172 10.7422 9.76562L19.2188 3.39844C19.6875 3.04688 20 2.5 20 1.875C20 0.859375 19.1406 0 18.125 0H1.875ZM0 4.375V12.5C0 13.9062 1.09375 15 2.5 15H17.5C18.8672 15 20 13.9062 20 12.5V4.375L11.4844 10.7812C10.5859 11.4453 9.375 11.4453 8.47656 10.7812L0 4.375Z" fill="#007A39"/>
</svg>
