<svg width="21" height="21" viewBox="0 0 21 21" fill="none" xmlns="http://www.w3.org/2000/svg">
<path d="M6.40625 1.47656C6.13281 0.734375 5.3125 0.382812 4.57031 0.578125L1.13281 1.51562C0.46875 1.71094 0 2.29688 0 3C0 12.6875 7.8125 20.5 17.5 20.5C18.2031 20.5 18.7891 20.0312 18.9844 19.3672L19.9219 15.9297C20.1172 15.1875 19.7656 14.3672 19.0234 14.0938L15.2734 12.5312C14.6484 12.2578 13.9062 12.4141 13.4766 12.9609L11.875 14.875C9.14062 13.5859 6.91406 11.3594 5.625 8.625L7.53906 7.02344C8.08594 6.59375 8.24219 5.85156 7.96875 5.22656L6.40625 1.47656Z" fill="#007A39"/>
</svg>
