<svg width="16" height="19" viewBox="0 0 16 19" fill="none" xmlns="http://www.w3.org/2000/svg">
<path d="M10.6875 4.75C10.6875 3.76562 10.125 2.85156 9.28125 2.32422C8.40234 1.83203 7.3125 1.83203 6.46875 2.32422C5.58984 2.85156 5.0625 3.76562 5.0625 4.75C5.0625 5.76953 5.58984 6.68359 6.46875 7.21094C7.3125 7.70312 8.40234 7.70312 9.28125 7.21094C10.125 6.68359 10.6875 5.76953 10.6875 4.75ZM3.375 4.75C3.375 3.16797 4.21875 1.69141 5.625 0.882812C6.99609 0.0742188 8.71875 0.0742188 10.125 0.882812C11.4961 1.69141 12.375 3.16797 12.375 4.75C12.375 6.36719 11.4961 7.84375 10.125 8.65234C8.71875 9.46094 6.99609 9.46094 5.625 8.65234C4.21875 7.84375 3.375 6.36719 3.375 4.75ZM1.72266 16.5625H13.9922C13.6758 14.3477 11.7773 12.625 9.45703 12.625H6.25781C3.9375 12.625 2.03906 14.3477 1.72266 16.5625ZM0 17.2305C0 13.75 2.77734 10.9375 6.25781 10.9375H9.45703C12.9375 10.9375 15.75 13.75 15.75 17.2305C15.75 17.793 15.2578 18.25 14.6953 18.25H1.01953C0.457031 18.25 0 17.793 0 17.2305Z" fill="#898A8D"/>
</svg>
