<svg width="18" height="19" viewBox="0 0 18 19" fill="none" xmlns="http://www.w3.org/2000/svg">
<path d="M13.75 8.25C12.7344 8.25 11.7969 7.85938 11.1328 7.23438L7.46094 9.07031C7.46094 9.1875 7.5 9.34375 7.5 9.5C7.5 9.69531 7.46094 9.8125 7.46094 9.96875L11.1328 11.8047C11.7969 11.1797 12.7344 10.75 13.75 10.75C15.8203 10.75 17.5 12.4297 17.5 14.5C17.5 16.5703 15.8203 18.25 13.75 18.25C11.6797 18.25 10 16.5703 10 14.5C10 14.3438 10 14.1875 10 14.0703L6.32812 12.2344C5.66406 12.8594 4.72656 13.25 3.75 13.25C1.67969 13.25 0 11.5703 0 9.5C0 7.42969 1.67969 5.75 3.75 5.75C4.72656 5.75 5.66406 6.17969 6.32812 6.80469L10 4.96875C10 4.8125 10 4.65625 10 4.5C10 2.42969 11.6797 0.75 13.75 0.75C15.8203 0.75 17.5 2.42969 17.5 4.5C17.5 6.57031 15.8203 8.25 13.75 8.25Z" fill="#007A39"/>
</svg>
