<svg width="14" height="15" viewBox="0 0 14 15" fill="none" xmlns="http://www.w3.org/2000/svg">
<path d="M9.625 7.75C9.625 8.37891 9.57031 8.95312 9.51562 9.5H4.45703C4.40234 8.95312 4.375 8.37891 4.375 7.75C4.375 7.14844 4.40234 6.57422 4.45703 6H9.51562C9.57031 6.57422 9.625 7.14844 9.625 7.75ZM10.3906 6H13.7539C13.918 6.57422 14 7.14844 14 7.75C14 8.37891 13.918 8.95312 13.7539 9.5H10.3906C10.4453 8.95312 10.5 8.35156 10.5 7.75C10.5 7.14844 10.4453 6.57422 10.3906 6ZM13.4805 5.125H10.2812C10.0078 3.40234 9.46094 1.92578 8.77734 0.996094C10.9102 1.57031 12.6602 3.10156 13.4805 5.125ZM9.40625 5.125H4.56641C4.73047 4.14062 5.00391 3.26562 5.30469 2.55469C5.60547 1.89844 5.90625 1.43359 6.23438 1.13281C6.53516 0.859375 6.78125 0.75 7 0.75C7.19141 0.75 7.4375 0.859375 7.73828 1.13281C8.06641 1.43359 8.36719 1.89844 8.66797 2.55469C8.96875 3.26562 9.24219 4.14062 9.40625 5.125ZM3.69141 5.125H0.492188C1.3125 3.10156 3.0625 1.57031 5.19531 0.996094C4.51172 1.92578 3.96484 3.40234 3.69141 5.125ZM0.21875 6H3.58203C3.52734 6.57422 3.5 7.14844 3.5 7.75C3.5 8.35156 3.52734 8.95312 3.58203 9.5H0.21875C0.0546875 8.95312 0 8.37891 0 7.75C0 7.14844 0.0546875 6.57422 0.21875 6ZM5.30469 12.9727C5.00391 12.2617 4.73047 11.3867 4.56641 10.375H9.40625C9.24219 11.3867 8.96875 12.2617 8.66797 12.9727C8.36719 13.6289 8.06641 14.0938 7.73828 14.3945C7.4375 14.668 7.19141 14.75 7 14.75C6.78125 14.75 6.53516 14.668 6.23438 14.3945C5.90625 14.0938 5.60547 13.6289 5.30469 12.9727ZM3.69141 10.375C3.96484 12.125 4.51172 13.6016 5.19531 14.5312C3.0625 13.957 1.3125 12.4258 0.492188 10.375H3.69141ZM13.4805 10.375C12.6602 12.4258 10.9102 13.957 8.77734 14.5312C9.48828 13.6016 10.0078 12.125 10.2812 10.375H13.4805Z" fill="black"/>
<path d="M0 13.6836H14V14.3672H0V13.6836Z" fill="black"/>
<a href="https://newwebsite.kistler-machine.com/en">
<rect fill="black" fill-opacity="0" width="14" height="14"/>
</a>
</svg>
